<svg width="53" height="53" viewBox="0 0 53 53" fill="none" xmlns="http://www.w3.org/2000/svg">
<g clip-path="url(#clip0_331_10667)">
<path d="M36.8068 16.4603L22.4966 30.7705L14.7009 22.9965L11.639 26.0583L22.4966 36.9158L39.8686 19.5438L36.8068 16.4603ZM26.8396 4.34326C14.8529 4.34326 5.12451 14.0716 5.12451 26.0583C5.12451 38.045 14.8529 47.7734 26.8396 47.7734C38.8263 47.7734 48.5546 38.045 48.5546 26.0583C48.5546 14.0716 38.8263 4.34326 26.8396 4.34326ZM26.8396 43.4304C17.2415 43.4304 9.46752 35.6564 9.46752 26.0583C9.46752 16.4603 17.2415 8.68627 26.8396 8.68627C36.4376 8.68627 44.2116 16.4603 44.2116 26.0583C44.2116 35.6564 36.4376 43.4304 26.8396 43.4304Z" fill="white"/>
</g>
<defs>
<clipPath id="clip0_331_10667">
<rect width="52.1161" height="52.1161" fill="white" transform="translate(0.780273)"/>
</clipPath>
</defs>
</svg>
