<svg width="16" height="16" viewBox="0 0 16 16" fill="none" xmlns="http://www.w3.org/2000/svg">
<path fill-rule="evenodd" clip-rule="evenodd" d="M4.23423 5.83444C4.38425 5.68446 4.5877 5.60021 4.79983 5.60021C5.01196 5.60021 5.21541 5.68446 5.36543 5.83444L7.99983 8.46884L10.6342 5.83444C10.708 5.75803 10.7963 5.69709 10.8939 5.65516C10.9915 5.61323 11.0965 5.59116 11.2027 5.59024C11.3089 5.58932 11.4143 5.60956 11.5126 5.64978C11.6109 5.69001 11.7002 5.74941 11.7753 5.82452C11.8505 5.89964 11.9099 5.98896 11.9501 6.08728C11.9903 6.18559 12.0106 6.29094 12.0096 6.39716C12.0087 6.50339 11.9866 6.60836 11.9447 6.70596C11.9028 6.80357 11.8418 6.89184 11.7654 6.96564L8.56543 10.1656C8.41541 10.3156 8.21196 10.3999 7.99983 10.3999C7.7877 10.3999 7.58425 10.3156 7.43423 10.1656L4.23423 6.96564C4.08425 6.81562 4 6.61217 4 6.40004C4 6.18791 4.08425 5.98446 4.23423 5.83444Z" fill="#3F3F46"/>
</svg>
