<svg width="18" height="18" viewBox="0 0 18 18" fill="none" xmlns="http://www.w3.org/2000/svg">
<g clip-path="url(#clip0_217_10970)">
<path fill-rule="evenodd" clip-rule="evenodd" d="M0.75 9C0.75 4.44365 4.44365 0.75 9 0.75C13.5563 0.75 17.25 4.44365 17.25 9C17.25 13.5563 13.5563 17.25 9 17.25C4.44365 17.25 0.75 13.5563 0.75 9Z" fill="#8A8A8A"/>
<path d="M12.2546 6.99183C12.5576 6.70942 12.5743 6.23484 12.2919 5.93183C12.0094 5.62882 11.5349 5.61212 11.2319 5.89454L9.03726 7.93996L6.99183 5.74536C6.70942 5.44235 6.23484 5.42565 5.93183 5.70807C5.62882 5.99048 5.61212 6.46506 5.89454 6.76807L7.93996 8.96267L5.74536 11.0081C5.44235 11.2905 5.42565 11.7651 5.70807 12.0681C5.99048 12.3711 6.46506 12.3878 6.76807 12.1054L8.96267 10.06L11.0081 12.2546C11.2905 12.5576 11.7651 12.5743 12.0681 12.2919C12.3711 12.0094 12.3878 11.5349 12.1054 11.2319L10.06 9.03726L12.2546 6.99183Z" fill="white"/>
</g>
<defs>
<clipPath id="clip0_217_10970">
<rect width="18" height="18" fill="white"/>
</clipPath>
</defs>
</svg>
