<svg width="40" height="40" viewBox="0 0 40 40" fill="none" xmlns="http://www.w3.org/2000/svg">
<rect x="5" y="5" width="30" height="30" rx="15" fill="#7F44AA"/>
<path fill-rule="evenodd" clip-rule="evenodd" d="M21.5284 14.8618C21.7888 14.6014 22.2109 14.6014 22.4712 14.8618L25.8046 18.1951C26.0649 18.4554 26.0649 18.8776 25.8046 19.1379L19.1379 25.8046C19.0129 25.9296 18.8433 25.9998 18.6665 25.9998H15.3332C14.965 25.9998 14.6665 25.7014 14.6665 25.3332V21.9998C14.6665 21.823 14.7367 21.6535 14.8618 21.5284L21.5284 14.8618ZM15.9998 22.276V24.6665H18.3904L24.3904 18.6665L21.9998 16.276L15.9998 22.276Z" fill="white"/>
<path fill-rule="evenodd" clip-rule="evenodd" d="M22.8618 21.1379L19.5284 17.8046L20.4712 16.8618L23.8046 20.1951L22.8618 21.1379Z" fill="white"/>
<rect x="5" y="5" width="30" height="30" rx="15" stroke="#7F44AA" stroke-width="2"/>
</svg>
