<svg width="19" height="18" viewBox="0 0 19 18" fill="none" xmlns="http://www.w3.org/2000/svg">
<path d="M17.2175 8.82196V13.9783C17.2175 14.369 17.0527 14.7437 16.7596 15.02C16.4665 15.2963 16.069 15.4515 15.6545 15.4515H4.71297C4.29842 15.4515 3.90078 15.2963 3.60764 15.02C3.31451 14.7437 3.1499 14.369 3.1499 13.9783V3.66562C3.1499 3.2749 3.31451 2.90019 3.60764 2.62391C3.90078 2.34762 4.29842 2.19238 4.71297 2.19238H10.1837" stroke="#44475C" stroke-width="2" stroke-miterlimit="10"/>
<path d="M8.62109 7.88563V10.2944H11.1844L17.7728 4.08464C17.9184 3.94663 18.0001 3.75996 18.0001 3.56536C18.0001 3.37075 17.9184 3.18409 17.7728 3.04607L16.3191 1.67597C16.2465 1.60693 16.16 1.55205 16.0648 1.51466C15.9695 1.47726 15.8674 1.45801 15.7642 1.45801C15.6611 1.45801 15.559 1.47726 15.4637 1.51466C15.3685 1.55205 15.282 1.60693 15.2094 1.67597L8.62109 7.88563Z" stroke="#44475C" stroke-width="2" stroke-linejoin="round"/>
</svg>
