<svg width="203" height="130" viewBox="0 0 203 130" fill="none" xmlns="http://www.w3.org/2000/svg">
<path d="M25.188 119.816L19.7194 119.42C19.2805 123.26 16.8454 125.201 12.6938 125.201C7.94359 125.201 5.46867 122.667 5.46867 117.717V110.274C5.46867 105.325 7.94359 102.791 12.6938 102.791C16.8454 102.791 19.2805 104.731 19.7194 108.571L25.188 108.175C24.669 101.801 19.4399 98 12.6938 98C5.50863 98 0 102.276 0 109.403V118.588C0 125.715 5.50863 129.991 12.6938 129.991C19.4399 129.991 24.669 126.19 25.188 119.816ZM35.1713 128.487V115.975C35.2907 113.045 38.1647 111.383 41.0788 111.383C41.7178 111.383 42.3963 111.422 42.9553 111.541L43.3543 106.711C42.7553 106.592 41.8373 106.473 41.0788 106.473C38.4443 106.473 36.2487 107.502 34.7323 109.165V106.869H29.7822V129.081C29.7822 129.912 30.2212 130.15 31.0997 129.873L35.1713 128.487ZM64.4965 120.093V115.738C64.4965 109.205 59.986 106.473 54.517 106.473C49.0484 106.473 44.5379 109.205 44.5379 115.738V120.726C44.5379 127.259 49.0484 129.991 54.517 129.991C59.427 129.991 63.698 127.576 64.377 122.825L58.988 122.389C58.589 124.409 56.7925 125.478 54.517 125.478C51.8424 125.478 49.9264 124.052 49.9264 121.004V120.093H64.4965ZM49.9264 115.223C49.9264 112.491 51.8424 110.987 54.517 110.987C57.1515 110.987 59.068 112.491 59.068 115.223V115.659H49.9264V115.223ZM85.0573 123.26C85.0573 119.42 82.5423 117.48 78.8698 116.371L75.5568 115.381C74.1598 114.946 73.1217 114.352 73.1217 113.006C73.1217 111.739 74.1598 111.026 75.9163 111.026C77.8323 111.026 78.9498 112.214 79.1493 113.837L84.4583 113.362C84.1393 108.967 80.3868 106.473 75.8763 106.473C71.0062 106.473 67.6932 108.849 67.6932 113.125C67.6932 116.807 69.8887 118.391 73.1617 119.38L76.4747 120.37C78.5508 121.004 79.5883 121.875 79.5883 123.221C79.5883 124.686 78.3513 125.438 76.2753 125.438C74.0003 125.438 72.4432 124.448 72.2037 121.875L66.8947 122.35C67.2542 127.457 71.0863 129.991 76.2753 129.991C80.5468 129.991 85.0573 128.17 85.0573 123.26ZM107.451 122.231L102.022 121.796C101.703 124.211 99.9864 125.359 97.6314 125.359C94.9568 125.359 93.0408 123.934 93.0408 120.845V115.619C93.0408 112.531 94.9568 111.105 97.6314 111.105C99.9864 111.105 101.703 112.254 102.022 114.669L107.451 114.233C106.772 108.769 102.621 106.473 97.6314 106.473C92.1623 106.473 87.6518 109.205 87.6518 115.738V120.726C87.6518 127.259 92.1623 129.991 97.6314 129.991C102.621 129.991 106.772 127.695 107.451 122.231ZM130.493 120.093V115.738C130.493 109.205 125.983 106.473 120.514 106.473C115.045 106.473 110.535 109.205 110.535 115.738V120.726C110.535 127.259 115.045 129.991 120.514 129.991C125.424 129.991 129.695 127.576 130.374 122.825L124.985 122.389C124.585 124.409 122.789 125.478 120.514 125.478C117.839 125.478 115.923 124.052 115.923 121.004V120.093H130.493ZM115.923 115.223C115.923 112.491 117.839 110.987 120.514 110.987C123.148 110.987 125.064 112.491 125.064 115.223V115.659H115.923V115.223ZM139.877 128.487V115.975C139.957 112.966 141.992 111.105 144.667 111.105C147.381 111.105 149.297 112.61 149.297 115.777V129.081C149.297 129.912 149.617 130.15 150.495 129.873L154.686 128.487V116.015C154.686 109.284 150.535 106.473 145.385 106.473C142.99 106.473 140.915 107.344 139.438 108.809V106.869H134.488V129.081C134.488 129.912 134.927 130.15 135.805 129.873L139.877 128.487ZM179.035 128.566V98.396H173.606V108.373C172.169 107.186 170.293 106.473 168.098 106.473C162.908 106.473 158.677 109.284 158.677 116.015V120.133C158.677 126.863 162.908 129.675 168.137 129.675C170.532 129.675 172.568 128.803 174.045 127.378V129.081C174.045 129.912 174.484 130.189 175.362 129.873L179.035 128.566ZM168.856 125.042C166.062 125.042 164.066 123.538 164.066 120.37V115.777C164.066 112.61 166.062 111.105 168.856 111.105C171.53 111.105 173.486 112.966 173.606 115.975V120.172C173.486 123.221 171.53 125.042 168.856 125.042ZM203 120.726V115.738C203 109.205 198.489 106.473 193.02 106.473C187.551 106.473 183.041 109.205 183.041 115.738V120.726C183.041 127.259 187.551 129.991 193.02 129.991C198.489 129.991 203 127.259 203 120.726ZM197.571 120.845C197.571 123.934 195.655 125.359 193.02 125.359C190.346 125.359 188.43 123.934 188.43 120.845V115.619C188.43 112.531 190.346 111.105 193.02 111.105C195.655 111.105 197.571 112.531 197.571 115.619V120.845Z" fill="black"/>
<g clip-path="url(#clip0_893_1919)">
<path d="M75.1865 41.3226L101.257 0.00634766L126.979 41.3226L101.257 82.8168L75.1865 41.3226Z" fill="#722984"/>
<path d="M76.6665 41.3273L101.247 2.28027L125.5 41.3273L101.247 80.5429L76.6665 41.3273Z" fill="#9E56D2"/>
<path d="M111.441 41.3169H91.7417L95.9961 61.0246L101.638 79.9745L107.094 56.9504L111.441 41.3169Z" fill="#9362B7"/>
<path d="M101.916 79.4058L125.592 41.1272H118.563H111.627L106.077 60.456L101.916 79.4058Z" fill="#9455D3"/>
<path d="M101.823 78.7427L105.708 41.3169H106.818H110.98L101.823 78.7427Z" fill="#A473C9"/>
<path d="M83.1406 41.3167L100.898 2.46973L76.6665 41.3167L77.8688 41.8854L81.1059 42.0747L83.1406 41.3167Z" fill="#9455D3"/>
<path d="M87.0249 46.4333L76.7588 41.4116L92.3891 40.938L94.7013 53.9185L87.0249 46.4333Z" fill="#9455D3"/>
<path d="M110.794 41.1273H92.8516L99.1406 10.334L101.083 2.84888L106.447 21.4196L110.794 41.1273Z" fill="#AB70D5"/>
<path d="M111.812 41.3168L104.135 12.6079L110.517 41.3168L107.095 57.3294L111.812 41.3168Z" fill="white"/>
<path d="M118.378 41.1274H114.124L110.332 40.7485L95.7188 41.1274L106.447 41.6013L118.378 41.1274Z" fill="white"/>
<path d="M98.1234 68.5098L91.2793 41.1274L99.6112 8.72339L93.7764 41.1274L98.1234 68.5098Z" fill="white"/>
<path d="M121.8 40.7483L101.268 2.46973L125.777 41.4115L111.164 64.3406L121.8 40.7483Z" fill="#9455D3"/>
</g>
<defs>
<clipPath id="clip0_893_1919">
<rect width="52" height="83" fill="white" transform="translate(75)"/>
</clipPath>
</defs>
</svg>
