<svg width="63" height="100" viewBox="0 0 63 100" fill="none" xmlns="http://www.w3.org/2000/svg">
<g clip-path="url(#clip0_231_10644)">
<path d="M0.226318 49.7862L31.8113 0.00756836L62.9753 49.7862L31.8113 99.7792L0.226318 49.7862Z" fill="#722984"/>
<path d="M2.01904 49.792L31.7992 2.74731L61.1824 49.792L31.7992 97.0396L2.01904 49.792Z" fill="#9E56D2"/>
<path d="M44.1504 49.7793H20.2834L25.4378 73.5235L32.2729 96.3548L38.8839 68.6149L44.1504 49.7793Z" fill="#9362B7"/>
<path d="M32.6091 95.6698L61.2944 49.551H52.7783H44.3746L37.6515 72.8388L32.6091 95.6698Z" fill="#9455D3"/>
<path d="M32.4971 94.8706L37.2032 49.7793H38.5479H43.5903L32.4971 94.8706Z" fill="#A473C9"/>
<path d="M9.86266 49.7794L31.3766 2.97583L2.01904 49.7794L3.47571 50.4645L7.39752 50.6927L9.86266 49.7794Z" fill="#9455D3"/>
<path d="M14.5689 55.9437L2.1311 49.8934L21.0678 49.3228L23.8692 64.9619L14.5689 55.9437Z" fill="#9455D3"/>
<path d="M43.3662 49.551H21.6282L29.2476 12.4506L31.6008 3.43237L38.0997 25.8068L43.3662 49.551Z" fill="#AB70D5"/>
<path d="M44.5987 49.7794L35.2983 15.1904L43.0299 49.7794L38.8839 69.0717L44.5987 49.7794Z" fill="white"/>
<path d="M52.5545 49.551H47.4L42.806 49.0945L25.1018 49.551L38.0996 50.1219L52.5545 49.551Z" fill="white"/>
<path d="M28.0151 82.5419L19.7231 49.551L29.8175 10.51L22.7485 49.551L28.0151 82.5419Z" fill="white"/>
<path d="M56.7003 49.0946L31.825 2.97583L61.5185 49.8936L43.8143 77.5191L56.7003 49.0946Z" fill="#9455D3"/>
</g>
<defs>
<clipPath id="clip0_231_10644">
<rect width="63" height="100" fill="white"/>
</clipPath>
</defs>
</svg>
