<svg width="270" height="42" viewBox="0 0 270 42" fill="none" xmlns="http://www.w3.org/2000/svg">
<path d="M33.5012 28.6333L26.2278 28.1137C25.644 33.1544 22.4053 35.7007 16.8834 35.7007C10.5654 35.7007 7.2736 32.3748 7.2736 25.8791V16.1095C7.2736 9.61376 10.5654 6.28795 16.8834 6.28795C22.4053 6.28795 25.644 8.83428 26.2278 13.8749L33.5012 13.3553C32.8109 4.98878 25.8561 0 16.8834 0C7.32674 0 0 5.61236 0 14.9663V27.0224C0 36.3762 7.32674 41.9886 16.8834 41.9886C25.8561 41.9886 32.8109 36.9998 33.5012 28.6333ZM46.7795 40.0139V23.5926C46.9384 19.7471 50.761 17.5645 54.6368 17.5645C55.4867 17.5645 56.3892 17.6165 57.1327 17.7724L57.6633 11.4326C56.8666 11.2767 55.6456 11.1208 54.6368 11.1208C51.1328 11.1208 48.2126 12.4719 46.1956 14.6545V11.6404H39.6118V40.7934C39.6118 41.8847 40.1957 42.1964 41.3642 41.8327L46.7795 40.0139ZM85.7835 28.9971V23.2808C85.7835 14.7064 79.7843 11.1208 72.5102 11.1208C65.2368 11.1208 59.2376 14.7064 59.2376 23.2808V29.8285C59.2376 38.403 65.2368 41.9886 72.5102 41.9886C79.0408 41.9886 84.7215 38.8187 85.6246 32.5828L78.4569 32.0111C77.9262 34.6614 75.5368 36.0645 72.5102 36.0645C68.953 36.0645 66.4046 34.1937 66.4046 30.1923V28.9971H85.7835ZM66.4046 22.6053C66.4046 19.0196 68.953 17.0449 72.5102 17.0449C76.0143 17.0449 78.5633 19.0196 78.5633 22.6053V23.1769H66.4046V22.6053ZM113.13 33.1544C113.13 28.1137 109.785 25.5673 104.901 24.1123L100.494 22.8131C98.6361 22.2415 97.2555 21.462 97.2555 19.6951C97.2555 18.0322 98.6361 17.0969 100.972 17.0969C103.521 17.0969 105.007 18.6558 105.272 20.7865L112.334 20.1629C111.909 14.3946 106.918 11.1208 100.919 11.1208C94.4418 11.1208 90.0353 14.2387 90.0353 19.851C90.0353 24.6839 92.9555 26.7626 97.3087 28.0617L101.715 29.3608C104.476 30.1923 105.856 31.3355 105.856 33.1024C105.856 35.0251 104.211 36.0125 101.45 36.0125C98.424 36.0125 96.3531 34.7133 96.0345 31.3355L88.9733 31.9592C89.4514 38.6628 94.5482 41.9886 101.45 41.9886C107.131 41.9886 113.13 39.5982 113.13 33.1544ZM142.915 31.8033L135.695 31.2316C135.27 34.4016 132.987 35.9086 129.855 35.9086C126.297 35.9086 123.749 34.0378 123.749 29.9844V23.1249C123.749 19.0716 126.297 17.2008 129.855 17.2008C132.987 17.2008 135.27 18.7078 135.695 21.8777L142.915 21.3061C142.013 14.1348 136.491 11.1208 129.855 11.1208C122.58 11.1208 116.581 14.7064 116.581 23.2808V29.8285C116.581 38.403 122.58 41.9886 129.855 41.9886C136.491 41.9886 142.013 38.9746 142.915 31.8033ZM173.562 28.9971V23.2808C173.562 14.7064 167.563 11.1208 160.289 11.1208C153.016 11.1208 147.016 14.7064 147.016 23.2808V29.8285C147.016 38.403 153.016 41.9886 160.289 41.9886C166.82 41.9886 172.5 38.8187 173.403 32.5828L166.236 32.0111C165.704 34.6614 163.316 36.0645 160.289 36.0645C156.732 36.0645 154.183 34.1937 154.183 30.1923V28.9971H173.562ZM154.183 22.6053C154.183 19.0196 156.732 17.0449 160.289 17.0449C163.793 17.0449 166.341 19.0196 166.341 22.6053V23.1769H154.183V22.6053ZM186.043 40.0139V23.5926C186.15 19.6432 188.857 17.2008 192.414 17.2008C196.025 17.2008 198.573 19.1755 198.573 23.3328V40.7934C198.573 41.8847 198.998 42.1964 200.166 41.8327L205.741 40.0139V23.6446C205.741 14.8104 200.219 11.1208 193.37 11.1208C190.184 11.1208 187.424 12.264 185.459 14.1867V11.6404H178.875V40.7934C178.875 41.8847 179.46 42.1964 180.628 41.8327L186.043 40.0139ZM238.125 40.1178V0.519696H230.905V13.6152C228.994 12.0561 226.498 11.1208 223.579 11.1208C216.676 11.1208 211.049 14.8104 211.049 23.6446V29.049C211.049 37.8833 216.676 41.5729 223.631 41.5729C226.817 41.5729 229.525 40.4296 231.489 38.5588V40.7934C231.489 41.8847 232.073 42.2485 233.241 41.8327L238.125 40.1178ZM224.587 35.4928C220.871 35.4928 218.216 33.5181 218.216 29.3608V23.3328C218.216 19.1755 220.871 17.2008 224.587 17.2008C228.144 17.2008 230.746 19.6432 230.905 23.5926V29.101C230.746 33.1024 228.144 35.4928 224.587 35.4928ZM270 29.8285V23.2808C270 14.7064 264 11.1208 256.727 11.1208C249.453 11.1208 243.453 14.7064 243.453 23.2808V29.8285C243.453 38.403 249.453 41.9886 256.727 41.9886C264 41.9886 270 38.403 270 29.8285ZM262.779 29.9844C262.779 34.0378 260.231 35.9086 256.727 35.9086C253.169 35.9086 250.621 34.0378 250.621 29.9844V23.1249C250.621 19.0716 253.169 17.2008 256.727 17.2008C260.231 17.2008 262.779 19.0716 262.779 23.1249V29.9844Z" fill="black"/>
</svg>
