<svg width="40" height="40" viewBox="0 0 40 40" fill="none" xmlns="http://www.w3.org/2000/svg">
<rect x="4.5" y="4.5" width="31" height="31" rx="15.5" fill="white"/>
<path d="M14.6667 16.6667C14.6667 17.1941 14.8231 17.7097 15.1162 18.1482C15.4092 18.5867 15.8257 18.9285 16.3129 19.1303C16.8002 19.3322 17.3364 19.385 17.8537 19.2821C18.3709 19.1792 18.8461 18.9252 19.219 18.5523C19.592 18.1793 19.8459 17.7042 19.9488 17.1869C20.0517 16.6696 19.9989 16.1334 19.7971 15.6462C19.5953 15.1589 19.2535 14.7424 18.8149 14.4494C18.3764 14.1564 17.8608 14 17.3334 14C16.6262 14 15.9479 14.281 15.4478 14.781C14.9477 15.2811 14.6667 15.9594 14.6667 16.6667V16.6667ZM18.6667 16.6667C18.6667 16.9304 18.5885 17.1882 18.442 17.4074C18.2955 17.6267 18.0873 17.7976 17.8437 17.8985C17.6 17.9994 17.3319 18.0258 17.0733 17.9744C16.8147 17.9229 16.5771 17.7959 16.3906 17.6095C16.2041 17.423 16.0771 17.1854 16.0257 16.9268C15.9743 16.6681 16.0007 16.4001 16.1016 16.1564C16.2025 15.9128 16.3734 15.7045 16.5927 15.558C16.8119 15.4115 17.0697 15.3333 17.3334 15.3333C17.687 15.3333 18.0262 15.4738 18.2762 15.7239C18.5263 15.9739 18.6667 16.313 18.6667 16.6667ZM13.3334 26H21.3334C21.5102 26 21.6798 25.9298 21.8048 25.8047C21.9298 25.6797 22.0001 25.5101 22.0001 25.3333V23.3333C22.0001 22.6261 21.7191 21.9478 21.219 21.4477C20.7189 20.9476 20.0407 20.6667 19.3334 20.6667H15.3334C14.6262 20.6667 13.9479 20.9476 13.4478 21.4477C12.9477 21.9478 12.6667 22.6261 12.6667 23.3333V25.3333C12.6667 25.5101 12.737 25.6797 12.862 25.8047C12.987 25.9298 13.1566 26 13.3334 26ZM14.0001 23.3333C14.0001 22.9797 14.1406 22.6406 14.3906 22.3905C14.6407 22.1405 14.9798 22 15.3334 22H19.3334C19.687 22 20.0262 22.1405 20.2762 22.3905C20.5263 22.6406 20.6667 22.9797 20.6667 23.3333V24.6667H14.0001V23.3333ZM27.3334 14.6667C27.3334 14.8435 27.2632 15.013 27.1382 15.1381C27.0131 15.2631 26.8436 15.3333 26.6667 15.3333H22.6667C22.4899 15.3333 22.3204 15.2631 22.1953 15.1381C22.0703 15.013 22.0001 14.8435 22.0001 14.6667C22.0001 14.4899 22.0703 14.3203 22.1953 14.1953C22.3204 14.0702 22.4899 14 22.6667 14H26.6667C26.8436 14 27.0131 14.0702 27.1382 14.1953C27.2632 14.3203 27.3334 14.4899 27.3334 14.6667ZM27.3334 17.3333C27.3334 17.5101 27.2632 17.6797 27.1382 17.8047C27.0131 17.9298 26.8436 18 26.6667 18H22.6667C22.4899 18 22.3204 17.9298 22.1953 17.8047C22.0703 17.6797 22.0001 17.5101 22.0001 17.3333C22.0001 17.1565 22.0703 16.987 22.1953 16.8619C22.3204 16.7369 22.4899 16.6667 22.6667 16.6667H26.6667C26.8436 16.6667 27.0131 16.7369 27.1382 16.8619C27.2632 16.987 27.3334 17.1565 27.3334 17.3333ZM27.3334 20C27.3334 20.1768 27.2632 20.3464 27.1382 20.4714C27.0131 20.5964 26.8436 20.6667 26.6667 20.6667H22.6667C22.4899 20.6667 22.3204 20.5964 22.1953 20.4714C22.0703 20.3464 22.0001 20.1768 22.0001 20C22.0001 19.8232 22.0703 19.6536 22.1953 19.5286C22.3204 19.4036 22.4899 19.3333 22.6667 19.3333H26.6667C26.8436 19.3333 27.0131 19.4036 27.1382 19.5286C27.2632 19.6536 27.3334 19.8232 27.3334 20Z" fill="black"/>
<rect x="4.5" y="4.5" width="31" height="31" rx="15.5" stroke="#333333"/>
</svg>
