<svg width="18" height="18" viewBox="0 0 18 18" fill="none" xmlns="http://www.w3.org/2000/svg">
<path d="M12 4.5C12 3.70435 11.6839 2.94129 11.1213 2.37868C10.5587 1.81607 9.79565 1.5 9 1.5C8.20435 1.5 7.44133 1.81607 6.87872 2.37868C6.31611 2.94129 6 3.70435 6 4.5V6C6 6.79565 6.31611 7.55871 6.87872 8.12132C7.44133 8.68393 8.20435 9 9 9C9.79565 9 10.5587 8.68393 11.1213 8.12132C11.6839 7.55871 12 6.79565 12 6V4.5Z" stroke="#44475C" stroke-width="2" stroke-miterlimit="10"/>
<path d="M2.25 16.5C3.39 13.41 6 11.25 9 11.25C12 11.25 14.61 13.41 15.75 16.5" stroke="#44475C" stroke-width="2" stroke-miterlimit="10"/>
</svg>
