<svg width="20" height="20" viewBox="0 0 20 20" fill="none" xmlns="http://www.w3.org/2000/svg">
<path fill-rule="evenodd" clip-rule="evenodd" d="M5.83333 4.1665V3.33317C5.83333 2.4127 6.57953 1.6665 7.5 1.6665H12.5C13.4205 1.6665 14.1667 2.4127 14.1667 3.33317V4.1665H16.6667C17.1269 4.1665 17.5 4.5396 17.5 4.99984C17.5 5.46007 17.1269 5.83317 16.6667 5.83317H15.8333V14.9998C15.8333 16.3805 14.714 17.4998 13.3333 17.4998H6.66667C5.28595 17.4998 4.16667 16.3805 4.16667 14.9998V5.83317H3.33333C2.8731 5.83317 2.5 5.46007 2.5 4.99984C2.5 4.5396 2.8731 4.1665 3.33333 4.1665H5.83333ZM7.5 3.33317H12.5V4.1665H7.5V3.33317ZM5.83333 5.83317H14.1667V14.9998C14.1667 15.4601 13.7936 15.8332 13.3333 15.8332H6.66667C6.20643 15.8332 5.83333 15.4601 5.83333 14.9998V5.83317Z" fill="#333333"/>
<path d="M12.5 7.49984H10.8333V14.1665H12.5V7.49984Z" fill="#333333"/>
<path d="M9.16667 7.49984H7.5V14.1665H9.16667V7.49984Z" fill="#333333"/>
</svg>
