<svg width="40" height="40" viewBox="0 0 40 40" fill="none" xmlns="http://www.w3.org/2000/svg">
<g filter="url(#filter0_d_173_2895)">
<rect x="4" y="4" width="32" height="32" rx="16" fill="#7F44AA" shape-rendering="crispEdges"/>
<path fill-rule="evenodd" clip-rule="evenodd" d="M16.6667 15.333V14.6663C16.6667 13.93 17.2636 13.333 18 13.333H22C22.7364 13.333 23.3333 13.93 23.3333 14.6663V15.333H25.3333C25.7015 15.333 26 15.6315 26 15.9997C26 16.3679 25.7015 16.6663 25.3333 16.6663H24.6667V23.9997C24.6667 25.1042 23.7712 25.9997 22.6667 25.9997H17.3333C16.2288 25.9997 15.3333 25.1042 15.3333 23.9997V16.6663H14.6667C14.2985 16.6663 14 16.3679 14 15.9997C14 15.6315 14.2985 15.333 14.6667 15.333H16.6667ZM18 14.6663H22V15.333H18V14.6663ZM16.6667 16.6663H23.3333V23.9997C23.3333 24.3679 23.0349 24.6663 22.6667 24.6663H17.3333C16.9651 24.6663 16.6667 24.3679 16.6667 23.9997V16.6663Z" fill="white"/>
<path d="M22 17.9997H20.6667V23.333H22V17.9997Z" fill="white"/>
<path d="M19.3333 17.9997H18V23.333H19.3333V17.9997Z" fill="white"/>
<rect x="4.5" y="4.5" width="31" height="31" rx="15.5" stroke="#7F44AA" shape-rendering="crispEdges"/>
</g>
<defs>
<filter id="filter0_d_173_2895" x="0" y="0" width="40" height="40" filterUnits="userSpaceOnUse" color-interpolation-filters="sRGB">
<feFlood flood-opacity="0" result="BackgroundImageFix"/>
<feColorMatrix in="SourceAlpha" type="matrix" values="0 0 0 0 0 0 0 0 0 0 0 0 0 0 0 0 0 0 127 0" result="hardAlpha"/>
<feOffset/>
<feGaussianBlur stdDeviation="2"/>
<feComposite in2="hardAlpha" operator="out"/>
<feColorMatrix type="matrix" values="0 0 0 0 0 0 0 0 0 0 0 0 0 0 0 0 0 0 0.1 0"/>
<feBlend mode="normal" in2="BackgroundImageFix" result="effect1_dropShadow_173_2895"/>
<feBlend mode="normal" in="SourceGraphic" in2="effect1_dropShadow_173_2895" result="shape"/>
</filter>
</defs>
</svg>
