<svg width="40" height="40" viewBox="0 0 40 40" fill="none" xmlns="http://www.w3.org/2000/svg">
<rect x="4.5" y="4.5" width="31" height="31" rx="15.5" fill="white"/>
<path fill-rule="evenodd" clip-rule="evenodd" d="M16.6667 15.3335V14.6668C16.6667 13.9304 17.2636 13.3335 18 13.3335H22C22.7364 13.3335 23.3333 13.9304 23.3333 14.6668V15.3335H25.3333C25.7015 15.3335 26 15.632 26 16.0002C26 16.3684 25.7015 16.6668 25.3333 16.6668H24.6667V24.0002C24.6667 25.1047 23.7712 26.0002 22.6667 26.0002H17.3333C16.2288 26.0002 15.3333 25.1047 15.3333 24.0002V16.6668H14.6667C14.2985 16.6668 14 16.3684 14 16.0002C14 15.632 14.2985 15.3335 14.6667 15.3335H16.6667ZM18 14.6668H22V15.3335H18V14.6668ZM16.6667 16.6668H23.3333V24.0002C23.3333 24.3684 23.0349 24.6668 22.6667 24.6668H17.3333C16.9651 24.6668 16.6667 24.3684 16.6667 24.0002V16.6668Z" fill="#333333"/>
<path d="M22 18.0002H20.6667V23.3335H22V18.0002Z" fill="#333333"/>
<path d="M19.3333 18.0002H18V23.3335H19.3333V18.0002Z" fill="#333333"/>
<rect x="4.5" y="4.5" width="31" height="31" rx="15.5" stroke="#333333"/>
</svg>
