<svg width="19" height="23" viewBox="0 0 19 23" fill="none" xmlns="http://www.w3.org/2000/svg">
<path d="M15.8699 17.5098V12.5098H13.8699V17.5098H10.8699L14.8699 22.5098L18.8699 17.5098H15.8699Z" fill="#8266FF"/>
<path d="M9.25 21H3C2.46957 21 1.96077 20.7893 1.58569 20.4142C1.21062 20.0391 1 19.5304 1 19V3C1 2.46957 1.21062 1.96086 1.58569 1.58578C1.96077 1.21071 2.46957 1 3 1H9" stroke="#8266FF" stroke-width="2" stroke-miterlimit="10"/>
<path d="M17 9H11C10.4696 9 9.96077 8.78929 9.58569 8.41422C9.21062 8.03914 9 7.53043 9 7V1L17 9Z" stroke="#8266FF" stroke-width="2" stroke-linejoin="round"/>
</svg>
